# xmcd
#
# Track frame offsets:
#	150
#	13120
#	24992
#	34775
#	47705
#	59925
#	71792
#	83495
#	97207
#	108242
#	119930
#	125927
#	137775
#	153496
#	164528
#	180713
#	194028
#
# Disc length: 2988 seconds
#
# Revision: 0
# Processed by: cddbd v1.4PL0 Copyright (c) Steve Scherf et al.
# Submitted via: dBpowerAMP V4.0
#
DISCID=080baa11
DTITLE=Charlie Pride - Country Songs
DYEAR=1900
DGENRE=
TTITLE0=Crystal Chandeliers
TTITLE1=Shutters And Boards
TTITLE2=Kiss An Angel Good Morning
TTITLE3=Hekp Me Make It Through The Night
TTITLE4=There Goes My Everything
TTITLE5=My Eyes Can Only See As Far As You
TTITLE6=I'ts Gonna Take A Little Bit Longer
TTITLE7=I'm So Afraid Of Losing You
TTITLE8=Oklahoma Morning
TTITLE9=The Happiness Of Having You
TTITLE10=Lovesick Blues
TTITLE11=Louisiana Man
TTITLE12=Me And Bobby McGee
TTITLE13=Mississippi Cotton - Pickin' Delta Town
TTITLE14=Let Me Live In The Light Of His Light
TTITLE15=Raw Liga
TTITLE16=Medley: 1. Does My Ring Hurt Your Finger 2. To Good To Be True 3. I'd Rather Love You 4. All I Have To Offer You Is Me 5. Wonder Could I Live Here Any More 6. Is Anybody Goin' To San Antone 7. I'm Just Me
EXTD=\n\n                                                                                Les
EXTT0=
EXTT1=
EXTT2=
EXTT3=
EXTT4=
EXTT5=
EXTT6=
EXTT7=
EXTT8=
EXTT9=
EXTT10=
EXTT11=
EXTT12=
EXTT13=
EXTT14=
EXTT15=
EXTT16=
PLAYORDER=
